<?xml version="1.0" encoding="utf-8"?>
<!-- Generator: Adobe Illustrator 17.0.0, SVG Export Plug-In . SVG Version: 6.00 Build 0)  -->
<!DOCTYPE svg PUBLIC "-//W3C//DTD SVG 1.1//EN" "http://www.w3.org/Graphics/SVG/1.1/DTD/svg11.dtd">
<svg version="1.1" xmlns="http://www.w3.org/2000/svg" xmlns:xlink="http://www.w3.org/1999/xlink" x="0px" y="0px" width="260px"
	 height="47.542px" viewBox="0 0 260 47.542" enable-background="new 0 0 260 47.542" xml:space="preserve">
<g id="Layer_3" display="none">
	<rect x="-6.86" y="-6" display="inline" fill="#428BCA" width="277" height="50"/>
</g>
<g id="Layer_1" display="none">
	<g id="Designer__x26__Developer_1_" display="inline">
		<path fill="#FFFFFF" d="M21.218,0C9.577,0,0.14,9.436,0.14,21.078v20.787h2.626V31.268c3.593,6.492,10.508,10.89,18.453,10.89
			c11.641,0,21.079-9.438,21.079-21.079C42.298,9.436,32.86,0,21.218,0z M21.218,39.531c-10.175,0-18.452-8.278-18.452-18.453
			c0-10.175,8.277-18.453,18.452-18.453s18.453,8.278,18.453,18.453C39.671,31.253,31.393,39.531,21.218,39.531z"/>
		<g>
			<g id="Designer__x26__Developer">
				<path fill="#FFFFFF" d="M63.35,41.901V24.756h6.445c4.852,0,7.59,3.733,7.59,8.61c0,4.852-2.737,8.535-7.59,8.535H63.35z
					 M64.993,40.259h4.803c3.957,0,5.947-2.936,5.947-6.893c0-3.957-1.991-6.968-5.947-6.968h-4.803V40.259z"/>
				<path fill="#FFFFFF" d="M89.758,24.756v1.642h-8.137v6.271h7.117v1.642h-7.117v5.947h8.411v1.642H79.978V24.756H89.758z"/>
				<path fill="#FFFFFF" d="M97.457,40.508c2.588,0,3.932-1.468,4.205-2.812c0.324-2.115-1.319-3.185-3.26-3.633l-2.314-0.523
					c-3.558-0.796-4.031-2.862-4.031-4.305c0-2.787,2.638-4.678,5.375-4.678c3.036,0,5.375,1.916,5.375,4.902h-1.642
					c0-1.991-1.617-3.26-3.733-3.26c-1.891,0-3.733,1.219-3.733,3.036c0,0.896,0.324,2.165,2.737,2.712l2.339,0.523
					c2.737,0.622,5.002,2.24,4.504,5.524c-0.398,1.991-2.289,4.156-5.823,4.156c-3.384,0-5.549-2.663-5.549-5.176h1.642
					C93.55,38.691,95.068,40.508,97.457,40.508z"/>
				<path fill="#FFFFFF" d="M108.509,41.901h-1.642V24.756h1.642V41.901z"/>
				<path fill="#FFFFFF" d="M128.61,33.49c0,5.823-3.086,8.66-7.963,8.66c-4.852,0-8.61-3.932-8.61-8.784
					c0-4.877,3.757-8.809,8.61-8.809c2.09,0,3.981,0.747,5.475,1.991l-1.17,1.17c-1.17-0.946-2.663-1.518-4.305-1.518
					c-3.957,0-6.967,3.21-6.967,7.167c0,3.957,3.011,7.142,6.967,7.142c3.708,0,5.922-2.065,6.122-5.474h-5.002V33.49H128.61z"/>
				<path fill="#FFFFFF" d="M142.137,41.901l-8.734-14.358v14.358h-1.642V24.756h1.767l8.66,14.259V24.756h1.642v17.145H142.137z"/>
				<path fill="#FFFFFF" d="M157.713,24.756v1.642h-8.137v6.271h7.117v1.642h-7.117v5.947h8.411v1.642h-10.053V24.756H157.713z"/>
				<path fill="#FFFFFF" d="M172.9,41.901h-2.016l-4.728-6.694h-2.887v6.694h-1.667V24.756h6.371c3.484,0,4.752,2.613,4.752,5.251
					c0,2.588-1.219,5.101-4.553,5.201L172.9,41.901z M163.269,26.398v7.167h4.579c2.414,0,3.235-1.742,3.235-3.558
					s-0.821-3.608-3.11-3.608H163.269z"/>
				<path fill="#FFFFFF" d="M191.811,31.326v-2.19h1.617v2.215h2.289v1.468h-2.289v3.857c0,2.14,0.374,3.907,2.737,3.907v1.568
					c-1.916,0-3.334-0.946-3.782-2.314c-0.771,1.393-2.638,2.314-4.529,2.314c-3.285,0-5.574-2.414-5.574-5.474
					c0-1.991,1.145-3.782,2.887-4.728c-0.92-0.747-1.493-1.891-1.493-3.21c0-2.314,1.891-4.181,4.38-4.181
					c1.718,0,3.161,0.871,3.907,2.14l-1.393,0.871c-0.473-0.821-1.393-1.369-2.514-1.369c-1.593,0-2.737,1.095-2.737,2.538
					s1.071,2.588,2.613,2.588H191.811z M187.88,32.819c-2.265,0-3.957,1.817-3.957,3.857c0,2.14,1.568,3.832,3.932,3.832
					c2.289,0,3.882-1.593,3.957-3.658v-4.031H187.88z"/>
				<path fill="#FFFFFF" d="M206.493,41.901V24.756h6.444c4.853,0,7.59,3.733,7.59,8.61c0,4.852-2.737,8.535-7.59,8.535H206.493z
					 M208.135,40.259h4.802c3.957,0,5.948-2.936,5.948-6.893c0-3.957-1.991-6.968-5.948-6.968h-4.802V40.259z"/>
				<path fill="#FFFFFF" d="M232.899,24.756v1.642h-8.137v6.271h7.117v1.642h-7.117v5.947h8.411v1.642H223.12V24.756H232.899z"/>
				<path fill="#FFFFFF" d="M242.801,39.46l5.628-14.702h1.873l-6.631,17.145h-1.716l-6.655-17.145l1.872-0.004L242.801,39.46z"/>
				<path fill="#FFFFFF" d="M262.439,24.756v1.642h-8.138v6.271h7.117v1.642h-7.117v5.947h8.411v1.642h-10.053V24.756H262.439z"/>
				<path fill="#FFFFFF" d="M267.428,24.756v15.503h7.266v1.642h-8.909V24.756H267.428z"/>
				<path fill="#FFFFFF" d="M283.895,24.557c4.877,0,8.634,3.932,8.634,8.809c0,4.852-3.757,8.784-8.634,8.784
					c-4.853,0-8.61-3.932-8.61-8.784C275.285,28.489,279.042,24.557,283.895,24.557z M283.895,40.508
					c3.956,0,6.992-3.185,6.992-7.142c0-3.957-3.036-7.167-6.992-7.167c-3.957,0-6.968,3.21-6.968,7.167
					C276.927,37.323,279.938,40.508,283.895,40.508z"/>
				<path fill="#FFFFFF" d="M302.27,24.756c3.484,0,4.827,2.613,4.827,5.251s-1.344,5.201-4.827,5.201h-5.076v6.694h-1.668V24.756
					H302.27z M297.193,26.398v7.167h4.951c2.414,0,3.31-1.742,3.31-3.558s-0.896-3.608-3.185-3.608H297.193z"/>
				<path fill="#FFFFFF" d="M319.813,24.756v1.642h-8.138v6.271h7.117v1.642h-7.117v5.947h8.411v1.642h-10.053V24.756H319.813z"/>
				<path fill="#FFFFFF" d="M335,41.901h-2.016l-4.728-6.694h-2.887v6.694h-1.667V24.756h6.37c3.484,0,4.752,2.613,4.752,5.251
					c0,2.588-1.219,5.101-4.553,5.201L335,41.901z M325.369,26.398v7.167h4.579c2.414,0,3.235-1.742,3.235-3.558
					s-0.821-3.608-3.11-3.608H325.369z"/>
			</g>
			<g id="Paul_Van_Tuyl">
				<path fill="#FFFFFF" d="M70.094,0.164c3.484,0,4.827,2.613,4.827,5.25c0,2.638-1.344,5.201-4.827,5.201h-5.076v6.694H63.35
					V0.164H70.094z M65.018,1.806v7.167h4.952c2.414,0,3.31-1.742,3.31-3.558c0-1.816-0.896-3.608-3.185-3.608H65.018z"/>
				<path fill="#FFFFFF" d="M74.275,17.309l6.594-17.145h1.742l6.594,17.145h-1.767l-1.742-4.504h-7.938l-1.717,4.504H74.275z
					 M81.74,2.453l-3.384,8.809h6.768L81.74,2.453z"/>
				<path fill="#FFFFFF" d="M101.52,11.511V0.164h1.642v11.347c0,3.683-2.762,6.047-6.072,6.047c-3.31,0-6.072-2.364-6.072-6.047
					V0.164h1.642v11.347c0,2.687,2.016,4.404,4.429,4.404C99.505,15.915,101.52,14.198,101.52,11.511z"/>
				<path fill="#FFFFFF" d="M108.795,0.164v15.503h7.266v1.642h-8.908V0.164H108.795z"/>
				<path fill="#FFFFFF" d="M130.246,14.866l5.629-14.702h1.873l-6.63,17.145h-1.717l-6.655-17.145l1.873-0.004L130.246,14.866z"/>
				<path fill="#FFFFFF" d="M135.881,17.309l6.594-17.145h1.742l6.594,17.145h-1.767l-1.742-4.504h-7.938l-1.717,4.504H135.881z
					 M143.347,2.453l-3.384,8.809h6.768L143.347,2.453z"/>
				<path fill="#FFFFFF" d="M163.603,17.309l-8.734-14.358v14.358h-1.642V0.164h1.767l8.66,14.259V0.164h1.642v17.145H163.603z"/>
				<path fill="#FFFFFF" d="M187.766,0.164v1.642h-5.5v15.503h-1.642V1.806h-5.499V0.164H187.766z"/>
				<path fill="#FFFFFF" d="M200.682,11.511V0.164h1.642v11.347c0,3.683-2.763,6.047-6.072,6.047c-3.31,0-6.072-2.364-6.072-6.047
					V0.164h1.642v11.347c0,2.687,2.015,4.404,4.429,4.404C198.665,15.915,200.682,14.198,200.682,11.511z"/>
				<path fill="#FFFFFF" d="M212.832,17.309h-1.692V9.346l-6.444-9.182h1.965l5.325,7.391l5.375-7.391h1.991l-6.52,9.182V17.309z"/>
				<path fill="#FFFFFF" d="M223.427,0.164v15.503h7.266v1.642h-8.908V0.164H223.427z"/>
			</g>
		</g>
	</g>
</g>
<g id="Layer_1_copy_3">
	<g id="Designer__x26__Developer_4_">
		<path fill="#FFFFFF" d="M20.343,1.75C9.185,1.75,0.14,10.795,0.14,21.953v19.924h2.517V31.72
			C6.1,37.942,12.728,42.157,20.343,42.157c11.158,0,20.204-9.046,20.204-20.204C40.548,10.795,31.501,1.75,20.343,1.75z
			 M20.343,39.64c-9.753,0-17.686-7.935-17.686-17.687c0-9.752,7.934-17.687,17.686-17.687S38.03,12.201,38.03,21.953
			C38.03,31.706,30.096,39.64,20.343,39.64z"/>
		<g>
			<g id="Designer__x26__Developer_5_">
				<path fill="#FFFFFF" d="M60.727,41.417V29.521h4.472c3.367,0,5.266,2.59,5.266,5.974c0,3.367-1.899,5.922-5.266,5.922H60.727z
					 M61.866,40.278h3.332c2.745,0,4.127-2.037,4.127-4.783c0-2.745-1.381-4.834-4.127-4.834h-3.332V40.278z"/>
				<path fill="#FFFFFF" d="M79.049,29.521v1.14h-5.646v4.351h4.938v1.14h-4.938v4.127h5.836v1.14h-6.975V29.521H79.049z"/>
				<path fill="#FFFFFF" d="M84.392,40.451c1.796,0,2.728-1.019,2.918-1.951c0.224-1.468-0.915-2.21-2.262-2.521l-1.606-0.363
					c-2.469-0.553-2.797-1.986-2.797-2.987c0-1.934,1.83-3.246,3.729-3.246c2.106,0,3.729,1.329,3.729,3.401h-1.14
					c0-1.381-1.122-2.262-2.59-2.262c-1.312,0-2.59,0.846-2.59,2.106c0,0.622,0.224,1.502,1.899,1.882l1.623,0.363
					c1.899,0.432,3.47,1.554,3.125,3.833c-0.276,1.381-1.588,2.883-4.04,2.883c-2.348,0-3.85-1.847-3.85-3.591h1.14
					C81.681,39.19,82.734,40.451,84.392,40.451z"/>
				<path fill="#FFFFFF" d="M92.06,41.417h-1.14V29.521h1.14V41.417z"/>
				<path fill="#FFFFFF" d="M106.007,35.582c0,4.04-2.141,6.009-5.525,6.009c-3.367,0-5.974-2.728-5.974-6.095
					c0-3.384,2.607-6.112,5.974-6.112c1.45,0,2.763,0.518,3.799,1.381l-0.811,0.811c-0.812-0.656-1.847-1.053-2.987-1.053
					c-2.745,0-4.834,2.227-4.834,4.973c0,2.745,2.089,4.955,4.834,4.955c2.573,0,4.109-1.433,4.247-3.798h-3.47v-1.07H106.007z"/>
				<path fill="#FFFFFF" d="M115.393,41.417l-6.06-9.962v9.962h-1.14V29.521h1.226l6.009,9.893v-9.893h1.14v11.896H115.393z"/>
				<path fill="#FFFFFF" d="M126.201,29.521v1.14h-5.646v4.351h4.938v1.14h-4.938v4.127h5.836v1.14h-6.975V29.521H126.201z"/>
				<path fill="#FFFFFF" d="M136.738,41.417h-1.399l-3.281-4.645h-2.003v4.645h-1.157V29.521h4.42c2.417,0,3.297,1.813,3.297,3.643
					c0,1.796-0.846,3.54-3.159,3.609L136.738,41.417z M130.056,30.661v4.973h3.177c1.675,0,2.245-1.209,2.245-2.469
					c0-1.26-0.569-2.504-2.158-2.504H130.056z"/>
				<path fill="#FFFFFF" d="M149.86,34.079V32.56h1.122v1.537h1.588v1.019h-1.588v2.676c0,1.485,0.259,2.711,1.899,2.711v1.088
					c-1.329,0-2.314-0.656-2.624-1.606c-0.535,0.967-1.83,1.606-3.142,1.606c-2.279,0-3.868-1.675-3.868-3.798
					c0-1.381,0.794-2.624,2.003-3.281c-0.638-0.518-1.036-1.312-1.036-2.227c0-1.606,1.312-2.901,3.039-2.901
					c1.192,0,2.193,0.604,2.711,1.485l-0.967,0.604c-0.328-0.57-0.967-0.95-1.744-0.95c-1.105,0-1.899,0.76-1.899,1.761
					s0.743,1.796,1.813,1.796H149.86z M147.132,35.115c-1.572,0-2.746,1.26-2.746,2.676c0,1.485,1.088,2.659,2.728,2.659
					c1.588,0,2.694-1.105,2.746-2.538v-2.797H147.132z"/>
				<path fill="#FFFFFF" d="M160.047,41.417V29.521h4.472c3.367,0,5.266,2.59,5.266,5.974c0,3.367-1.899,5.922-5.266,5.922H160.047z
					 M161.187,40.278h3.332c2.746,0,4.127-2.037,4.127-4.783c0-2.745-1.381-4.834-4.127-4.834h-3.332V40.278z"/>
				<path fill="#FFFFFF" d="M178.37,29.521v1.14h-5.646v4.351h4.938v1.14h-4.938v4.127h5.836v1.14h-6.975V29.521H178.37z"/>
				<path fill="#FFFFFF" d="M185.24,39.724l3.905-10.201h1.3l-4.601,11.896h-1.191l-4.618-11.896l1.299-0.003L185.24,39.724z"/>
				<path fill="#FFFFFF" d="M198.866,29.521v1.14h-5.646v4.351h4.938v1.14h-4.938v4.127h5.836v1.14h-6.975V29.521H198.866z"/>
				<path fill="#FFFFFF" d="M202.327,29.521v10.757h5.042v1.14h-6.181V29.521H202.327z"/>
				<path fill="#FFFFFF" d="M213.753,29.383c3.384,0,5.991,2.728,5.991,6.112c0,3.367-2.607,6.095-5.991,6.095
					c-3.367,0-5.974-2.728-5.974-6.095C207.779,32.111,210.386,29.383,213.753,29.383z M213.753,40.451
					c2.745,0,4.851-2.21,4.851-4.955c0-2.745-2.106-4.973-4.851-4.973c-2.746,0-4.834,2.227-4.834,4.973
					C208.919,38.241,211.007,40.451,213.753,40.451z"/>
				<path fill="#FFFFFF" d="M226.503,29.521c2.417,0,3.35,1.813,3.35,3.643c0,1.83-0.932,3.609-3.35,3.609h-3.522v4.645h-1.157
					V29.521H226.503z M222.98,30.661v4.973h3.436c1.675,0,2.297-1.209,2.297-2.469c0-1.26-0.622-2.504-2.21-2.504H222.98z"/>
				<path fill="#FFFFFF" d="M238.676,29.521v1.14h-5.646v4.351h4.938v1.14h-4.938v4.127h5.836v1.14h-6.975V29.521H238.676z"/>
				<path fill="#FFFFFF" d="M249.213,41.417h-1.399l-3.281-4.645h-2.003v4.645h-1.156V29.521h4.42c2.417,0,3.297,1.813,3.297,3.643
					c0,1.796-0.846,3.54-3.159,3.609L249.213,41.417z M242.531,30.661v4.973h3.177c1.675,0,2.245-1.209,2.245-2.469
					c0-1.26-0.569-2.504-2.158-2.504H242.531z"/>
			</g>
			<g id="Paul_Van_Tuyl_3_">
				<path fill="#FFFFFF" d="M68.322,1.908c3.924,0,5.437,2.943,5.437,5.914c0,2.971-1.514,5.858-5.437,5.858h-5.718v7.54h-1.878
					V1.908H68.322z M62.604,3.758v8.072h5.578c2.719,0,3.728-1.962,3.728-4.008c0-2.046-1.009-4.064-3.588-4.064H62.604z"/>
				<path fill="#FFFFFF" d="M73.032,21.219l7.427-19.311h1.962l7.427,19.311h-1.99l-1.962-5.073h-8.941l-1.934,5.073H73.032z
					 M81.44,4.486l-3.812,9.922h7.624L81.44,4.486z"/>
				<path fill="#FFFFFF" d="M103.719,14.689V1.908h1.85v12.781c0,4.148-3.111,6.811-6.839,6.811s-6.839-2.663-6.839-6.811V1.908
					h1.85v12.781c0,3.027,2.27,4.961,4.989,4.961C101.449,19.65,103.719,17.716,103.719,14.689z"/>
				<path fill="#FFFFFF" d="M111.913,1.908v17.462h8.184v1.85h-10.034V1.908H111.913z"/>
				<path fill="#FFFFFF" d="M136.074,18.467l6.34-16.559h2.109l-7.468,19.311h-1.934l-7.496-19.311l2.109-0.005L136.074,18.467z"/>
				<path fill="#FFFFFF" d="M142.422,21.219l7.427-19.311h1.962l7.427,19.311h-1.99l-1.962-5.073h-8.941l-1.934,5.073H142.422z
					 M150.831,4.486l-3.812,9.922h7.624L150.831,4.486z"/>
				<path fill="#FFFFFF" d="M173.646,21.219l-9.838-16.172v16.172h-1.85V1.908h1.99l9.754,16.06V1.908h1.85v19.311H173.646z"/>
				<path fill="#FFFFFF" d="M200.863,1.908v1.85h-6.195v17.462h-1.85V3.758h-6.194v-1.85H200.863z"/>
				<path fill="#FFFFFF" d="M215.41,14.689V1.908h1.85v12.781c0,4.148-3.112,6.811-6.839,6.811c-3.728,0-6.839-2.663-6.839-6.811
					V1.908h1.85v12.781c0,3.027,2.27,4.961,4.989,4.961C213.139,19.65,215.41,17.716,215.41,14.689z"/>
				<path fill="#FFFFFF" d="M229.096,21.219h-1.906V12.25l-7.259-10.342h2.214l5.998,8.324l6.054-8.324h2.242l-7.343,10.342V21.219z
					"/>
				<path fill="#FFFFFF" d="M241.029,1.908v17.462h8.184v1.85h-10.034V1.908H241.029z"/>
			</g>
		</g>
	</g>
</g>
<g id="Layer_1_copy_2" display="none">
	<g id="Designer__x26__Developer_2_" display="inline">
		<path fill="#FFFFFF" d="M21.218,0C9.577,0,0.14,9.436,0.14,21.078v20.787h2.626V31.268c3.593,6.492,10.508,10.89,18.453,10.89
			c11.641,0,21.079-9.438,21.079-21.079C42.298,9.436,32.86,0,21.218,0z M21.218,39.531c-10.175,0-18.452-8.278-18.452-18.453
			c0-10.175,8.277-18.453,18.452-18.453s18.453,8.278,18.453,18.453C39.671,31.253,31.393,39.531,21.218,39.531z"/>
		<g>
			<g id="Designer__x26__Developer_3_">
				<path fill="#FFFFFF" d="M63.35,41.901V24.756h6.445c4.852,0,7.59,3.733,7.59,8.61c0,4.852-2.737,8.535-7.59,8.535H63.35z
					 M64.993,40.259h4.803c3.957,0,5.947-2.936,5.947-6.893c0-3.957-1.991-6.968-5.947-6.968h-4.803V40.259z"/>
				<path fill="#FFFFFF" d="M89.758,24.756v1.642h-8.137v6.271h7.117v1.642h-7.117v5.947h8.411v1.642H79.978V24.756H89.758z"/>
				<path fill="#FFFFFF" d="M97.457,40.508c2.588,0,3.932-1.468,4.205-2.812c0.324-2.115-1.319-3.185-3.26-3.633l-2.314-0.523
					c-3.558-0.796-4.031-2.862-4.031-4.305c0-2.787,2.638-4.678,5.375-4.678c3.036,0,5.375,1.916,5.375,4.902h-1.642
					c0-1.991-1.617-3.26-3.733-3.26c-1.891,0-3.733,1.219-3.733,3.036c0,0.896,0.324,2.165,2.737,2.712l2.339,0.523
					c2.737,0.622,5.002,2.24,4.504,5.524c-0.398,1.991-2.289,4.156-5.823,4.156c-3.384,0-5.549-2.663-5.549-5.176h1.642
					C93.55,38.691,95.068,40.508,97.457,40.508z"/>
				<path fill="#FFFFFF" d="M108.509,41.901h-1.642V24.756h1.642V41.901z"/>
				<path fill="#FFFFFF" d="M128.61,33.49c0,5.823-3.086,8.66-7.963,8.66c-4.852,0-8.61-3.932-8.61-8.784
					c0-4.877,3.757-8.809,8.61-8.809c2.09,0,3.981,0.747,5.475,1.991l-1.17,1.17c-1.17-0.946-2.663-1.518-4.305-1.518
					c-3.957,0-6.967,3.21-6.967,7.167c0,3.957,3.011,7.142,6.967,7.142c3.708,0,5.922-2.065,6.122-5.474h-5.002V33.49H128.61z"/>
				<path fill="#FFFFFF" d="M142.137,41.901l-8.734-14.358v14.358h-1.642V24.756h1.767l8.66,14.259V24.756h1.642v17.145H142.137z"/>
				<path display="none" fill="#FFFFFF" d="M157.713,24.756v1.642h-8.137v6.271h7.117v1.642h-7.117v5.947h8.411v1.642h-10.053
					V24.756H157.713z"/>
				<path display="none" fill="#FFFFFF" d="M172.9,41.901h-2.016l-4.728-6.694h-2.887v6.694h-1.667V24.756h6.371
					c3.484,0,4.752,2.613,4.752,5.251c0,2.588-1.219,5.101-4.553,5.201L172.9,41.901z M163.269,26.398v7.167h4.579
					c2.414,0,3.235-1.742,3.235-3.558s-0.821-3.608-3.11-3.608H163.269z"/>
				<path fill="#FFFFFF" d="M162.849,31.326v-2.19h1.617v2.215h2.289v1.468h-2.289v3.857c0,2.14,0.374,3.907,2.737,3.907v1.568
					c-1.916,0-3.334-0.946-3.782-2.314c-0.771,1.393-2.638,2.314-4.529,2.314c-3.285,0-5.574-2.414-5.574-5.474
					c0-1.991,1.145-3.782,2.887-4.728c-0.92-0.747-1.493-1.891-1.493-3.21c0-2.314,1.891-4.181,4.38-4.181
					c1.718,0,3.161,0.871,3.907,2.14l-1.393,0.871c-0.473-0.821-1.394-1.369-2.514-1.369c-1.593,0-2.737,1.095-2.737,2.538
					s1.071,2.588,2.613,2.588H162.849z M158.917,32.819c-2.265,0-3.957,1.817-3.957,3.857c0,2.14,1.568,3.832,3.932,3.832
					c2.289,0,3.882-1.593,3.957-3.658v-4.031H158.917z"/>
				<path fill="#FFFFFF" d="M177.975,41.901V24.756h6.444c4.853,0,7.59,3.733,7.59,8.61c0,4.852-2.737,8.535-7.59,8.535H177.975z
					 M179.617,40.259h4.802c3.957,0,5.948-2.936,5.948-6.893c0-3.957-1.991-6.968-5.948-6.968h-4.802V40.259z"/>
				<path fill="#FFFFFF" d="M204.382,24.756v1.642h-8.137v6.271h7.117v1.642h-7.117v5.947h8.411v1.642h-10.053V24.756H204.382z"/>
				<path fill="#FFFFFF" d="M214.283,39.46l5.628-14.702h1.873l-6.631,17.145h-1.716l-6.655-17.145l1.872-0.004L214.283,39.46z"/>
				<path fill="#FFFFFF" d="M262.439,24.756v1.642h-8.138v6.271h7.117v1.642h-7.117v5.947h8.411v1.642h-10.053V24.756H262.439z"/>
				<path fill="#FFFFFF" d="M267.428,24.756v15.503h7.266v1.642h-8.909V24.756H267.428z"/>
				<path fill="#FFFFFF" d="M283.895,24.557c4.877,0,8.634,3.932,8.634,8.809c0,4.852-3.757,8.784-8.634,8.784
					c-4.853,0-8.61-3.932-8.61-8.784C275.285,28.489,279.042,24.557,283.895,24.557z M283.895,40.508
					c3.956,0,6.992-3.185,6.992-7.142c0-3.957-3.036-7.167-6.992-7.167c-3.957,0-6.968,3.21-6.968,7.167
					C276.927,37.323,279.938,40.508,283.895,40.508z"/>
				<path fill="#FFFFFF" d="M302.27,24.756c3.484,0,4.827,2.613,4.827,5.251s-1.344,5.201-4.827,5.201h-5.076v6.694h-1.668V24.756
					H302.27z M297.193,26.398v7.167h4.951c2.414,0,3.31-1.742,3.31-3.558s-0.896-3.608-3.185-3.608H297.193z"/>
				<path fill="#FFFFFF" d="M319.813,24.756v1.642h-8.138v6.271h7.117v1.642h-7.117v5.947h8.411v1.642h-10.053V24.756H319.813z"/>
				<path fill="#FFFFFF" d="M335,41.901h-2.016l-4.728-6.694h-2.887v6.694h-1.667V24.756h6.37c3.484,0,4.752,2.613,4.752,5.251
					c0,2.588-1.219,5.101-4.553,5.201L335,41.901z M325.369,26.398v7.167h4.579c2.414,0,3.235-1.742,3.235-3.558
					s-0.821-3.608-3.11-3.608H325.369z"/>
			</g>
			<g id="Paul_Van_Tuyl_2_">
				<path fill="#FFFFFF" d="M70.094,0.164c3.484,0,4.827,2.613,4.827,5.25c0,2.638-1.344,5.201-4.827,5.201h-5.076v6.694H63.35
					V0.164H70.094z M65.018,1.806v7.167h4.952c2.414,0,3.31-1.742,3.31-3.558c0-1.816-0.896-3.608-3.185-3.608H65.018z"/>
				<path fill="#FFFFFF" d="M74.275,17.309l6.594-17.145h1.742l6.594,17.145h-1.767l-1.742-4.504h-7.938l-1.717,4.504H74.275z
					 M81.74,2.453l-3.384,8.809h6.768L81.74,2.453z"/>
				<path fill="#FFFFFF" d="M101.52,11.511V0.164h1.642v11.347c0,3.683-2.762,6.047-6.072,6.047c-3.31,0-6.072-2.364-6.072-6.047
					V0.164h1.642v11.347c0,2.687,2.016,4.404,4.429,4.404C99.505,15.915,101.52,14.198,101.52,11.511z"/>
				<path fill="#FFFFFF" d="M108.795,0.164v15.503h7.266v1.642h-8.908V0.164H108.795z"/>
				<path fill="#FFFFFF" d="M130.246,14.866l5.629-14.702h1.873l-6.63,17.145h-1.717l-6.655-17.145l1.873-0.004L130.246,14.866z"/>
				<path fill="#FFFFFF" d="M135.881,17.309l6.594-17.145h1.742l6.594,17.145h-1.767l-1.742-4.504h-7.938l-1.717,4.504H135.881z
					 M143.347,2.453l-3.384,8.809h6.768L143.347,2.453z"/>
				<path fill="#FFFFFF" d="M163.603,17.309l-8.734-14.358v14.358h-1.642V0.164h1.767l8.66,14.259V0.164h1.642v17.145H163.603z"/>
				<path fill="#FFFFFF" d="M187.766,0.164v1.642h-5.5v15.503h-1.642V1.806h-5.499V0.164H187.766z"/>
				<path fill="#FFFFFF" d="M200.682,11.511V0.164h1.642v11.347c0,3.683-2.763,6.047-6.072,6.047c-3.31,0-6.072-2.364-6.072-6.047
					V0.164h1.642v11.347c0,2.687,2.015,4.404,4.429,4.404C198.665,15.915,200.682,14.198,200.682,11.511z"/>
				<path fill="#FFFFFF" d="M212.832,17.309h-1.692V9.346l-6.444-9.182h1.965l5.325,7.391l5.375-7.391h1.991l-6.52,9.182V17.309z"/>
				<path fill="#FFFFFF" d="M223.427,0.164v15.503h7.266v1.642h-8.908V0.164H223.427z"/>
			</g>
		</g>
	</g>
</g>
<g id="Layer_1_copy" display="none">
	<path display="inline" fill="#FFFFFF" d="M23.77,0C10.642,0,0,10.641,0,23.77v23.442h2.961V35.261
		c4.052,7.321,11.85,12.28,20.809,12.28c13.128,0,23.772-10.643,23.772-23.771C47.542,10.641,36.899,0,23.77,0z M23.77,44.58
		c-11.474,0-20.809-9.336-20.809-20.81c0-11.474,9.334-20.809,20.809-20.809s20.81,9.335,20.81,20.809
		C44.58,35.244,35.245,44.58,23.77,44.58z"/>
	<g id="Paul_Van_Tuyl_1_" display="inline">
		<path fill="#FFFFFF" d="M78.888,13.965c3.929,0,5.444,2.946,5.444,5.921c0,2.975-1.515,5.865-5.444,5.865h-5.725V33.3h-1.88
			V13.965H78.888z M73.164,15.818v8.082h5.584c2.722,0,3.732-1.964,3.732-4.013c0-2.048-1.01-4.069-3.592-4.069H73.164z"/>
		<path fill="#FFFFFF" d="M83.603,33.3l7.436-19.335h1.964L100.44,33.3h-1.992l-1.964-5.079h-8.952L85.596,33.3H83.603z
			 M92.022,16.547l-3.816,9.934h7.633L92.022,16.547z"/>
		<path fill="#FFFFFF" d="M114.328,26.762V13.965h1.852v12.796c0,4.153-3.115,6.819-6.847,6.819c-3.732,0-6.847-2.666-6.847-6.819
			V13.965h1.852v12.796c0,3.031,2.273,4.967,4.995,4.967C112.055,31.729,114.328,29.792,114.328,26.762z"/>
		<path fill="#FFFFFF" d="M122.532,13.965v17.483h8.194V33.3H120.68V13.965H122.532z"/>
		<path fill="#FFFFFF" d="M146.722,30.545l6.347-16.579h2.112L147.704,33.3h-1.936l-7.505-19.335l2.112-0.005L146.722,30.545z"/>
		<path fill="#FFFFFF" d="M153.078,33.3l7.436-19.335h1.964l7.436,19.335h-1.992l-1.964-5.079h-8.952L155.07,33.3H153.078z
			 M161.496,16.547l-3.816,9.934h7.633L161.496,16.547z"/>
		<path fill="#FFFFFF" d="M184.339,33.3l-9.85-16.192V33.3h-1.852V13.965h1.992l9.766,16.08v-16.08h1.852V33.3H184.339z"/>
		<path fill="#FFFFFF" d="M211.589,13.965v1.852h-6.202V33.3h-1.852V15.818h-6.201v-1.852H211.589z"/>
		<path fill="#FFFFFF" d="M226.153,26.762V13.965h1.852v12.796c0,4.153-3.115,6.819-6.847,6.819c-3.733,0-6.847-2.666-6.847-6.819
			V13.965h1.852v12.796c0,3.031,2.272,4.967,4.995,4.967C223.88,31.729,226.153,29.792,226.153,26.762z"/>
		<path fill="#FFFFFF" d="M239.856,33.3h-1.908v-8.98l-7.267-10.355h2.216l6.005,8.334l6.061-8.334h2.245l-7.352,10.355V33.3z"/>
		<path fill="#FFFFFF" d="M251.803,13.965v17.483h8.194V33.3h-10.046V13.965H251.803z"/>
	</g>
</g>
</svg>
