<?xml version="1.0" encoding="utf-8"?>
<!-- Generator: Adobe Illustrator 17.0.0, SVG Export Plug-In . SVG Version: 6.00 Build 0)  -->
<!DOCTYPE svg PUBLIC "-//W3C//DTD SVG 1.1//EN" "http://www.w3.org/Graphics/SVG/1.1/DTD/svg11.dtd">
<svg version="1.1" xmlns="http://www.w3.org/2000/svg" xmlns:xlink="http://www.w3.org/1999/xlink" x="0px" y="0px" width="260px"
	 height="47.542px" viewBox="0 0 260 47.542" enable-background="new 0 0 260 47.542" xml:space="preserve">
<g id="Layer_3" display="none">
	<rect x="-6.86" y="-6" display="inline" width="277" height="50"/>
</g>
<g id="Layer_1">
	<g id="Designer__x26__Developer_1_">
		<path fill="#FFFFFF" d="M16.488,0C7.459,0,0.14,7.319,0.14,16.349v16.122h2.036v-8.219c2.787,5.035,8.15,8.446,14.312,8.446
			c9.029,0,16.349-7.32,16.349-16.349C32.838,7.319,25.518,0,16.488,0z M16.488,30.661c-7.892,0-14.312-6.421-14.312-14.312
			c0-7.892,6.42-14.312,14.312-14.312s14.312,6.42,14.312,14.312C30.801,24.24,24.38,30.661,16.488,30.661z"/>
		<g>
			<g id="Designer__x26__Developer">
				<path fill="#B1B1B1" d="M49.167,32.499V19.201h4.999c3.764,0,5.887,2.895,5.887,6.678c0,3.764-2.123,6.62-5.887,6.62H49.167z
					 M50.44,31.225h3.725c3.069,0,4.613-2.277,4.613-5.346c0-3.069-1.544-5.404-4.613-5.404H50.44V31.225z"/>
				<path fill="#B1B1B1" d="M69.648,19.201v1.274h-6.311v4.864h5.52v1.274h-5.52v4.613h6.523v1.274h-7.797V19.201H69.648z"/>
				<path fill="#B1B1B1" d="M75.62,31.418c2.007,0,3.049-1.139,3.262-2.181c0.251-1.641-1.023-2.47-2.528-2.818l-1.795-0.405
					c-2.76-0.618-3.127-2.22-3.127-3.339c0-2.162,2.046-3.628,4.169-3.628c2.355,0,4.169,1.486,4.169,3.802h-1.274
					c0-1.544-1.255-2.528-2.895-2.528c-1.467,0-2.895,0.946-2.895,2.355c0,0.695,0.251,1.679,2.123,2.104l1.814,0.405
					c2.123,0.483,3.879,1.737,3.493,4.285c-0.309,1.544-1.776,3.223-4.516,3.223c-2.625,0-4.304-2.065-4.304-4.014h1.274
					C72.59,30.009,73.767,31.418,75.62,31.418z"/>
				<path fill="#B1B1B1" d="M84.192,32.499h-1.274V19.201h1.274V32.499z"/>
				<path fill="#B1B1B1" d="M99.782,25.975c0,4.516-2.393,6.716-6.176,6.716c-3.764,0-6.678-3.049-6.678-6.813
					c0-3.783,2.914-6.832,6.678-6.832c1.621,0,3.088,0.579,4.246,1.544l-0.907,0.907c-0.907-0.733-2.065-1.177-3.339-1.177
					c-3.069,0-5.404,2.49-5.404,5.558c0,3.069,2.335,5.539,5.404,5.539c2.876,0,4.593-1.602,4.748-4.246h-3.879v-1.197H99.782z"/>
				<path fill="#B1B1B1" d="M110.274,32.499L103.5,21.363v11.136h-1.274V19.201h1.37l6.716,11.059V19.201h1.274v13.298H110.274z"/>
				<path fill="#B1B1B1" d="M122.355,19.201v1.274h-6.311v4.864h5.52v1.274h-5.52v4.613h6.523v1.274h-7.797V19.201H122.355z"/>
				<path fill="#B1B1B1" d="M134.134,32.499h-1.564l-3.667-5.192h-2.239v5.192h-1.293V19.201h4.941c2.702,0,3.686,2.027,3.686,4.072
					c0,2.007-0.945,3.957-3.532,4.034L134.134,32.499z M126.664,20.475v5.558h3.551c1.873,0,2.509-1.351,2.509-2.76
					s-0.636-2.799-2.412-2.799H126.664z"/>
				<path fill="#B1B1B1" d="M148.802,24.296v-1.698h1.254v1.718h1.776v1.139h-1.776v2.992c0,1.66,0.29,3.03,2.123,3.03v1.216
					c-1.486,0-2.586-0.733-2.934-1.795c-0.598,1.081-2.046,1.795-3.513,1.795c-2.548,0-4.323-1.872-4.323-4.246
					c0-1.544,0.888-2.934,2.239-3.667c-0.714-0.579-1.158-1.467-1.158-2.49c0-1.795,1.467-3.242,3.397-3.242
					c1.332,0,2.452,0.676,3.031,1.66l-1.081,0.675c-0.367-0.637-1.081-1.062-1.95-1.062c-1.235,0-2.123,0.849-2.123,1.969
					c0,1.119,0.83,2.007,2.027,2.007H148.802z M145.752,25.454c-1.757,0-3.069,1.409-3.069,2.992c0,1.66,1.216,2.972,3.049,2.972
					c1.776,0,3.011-1.235,3.069-2.837v-3.127H145.752z"/>
				<path fill="#B1B1B1" d="M160.189,32.499V19.201h4.998c3.764,0,5.887,2.895,5.887,6.678c0,3.764-2.123,6.62-5.887,6.62H160.189z
					 M161.463,31.225h3.725c3.069,0,4.613-2.277,4.613-5.346c0-3.069-1.544-5.404-4.613-5.404h-3.725V31.225z"/>
				<path fill="#B1B1B1" d="M180.67,19.201v1.274h-6.311v4.864h5.52v1.274h-5.52v4.613h6.523v1.274h-7.797V19.201H180.67z"/>
				<path display="none" fill="#B1B1B1" d="M187.929,30.414l3.339-11.213h1.312l-3.976,13.298h-1.332l-3.995-13.298h1.312
					L187.929,30.414z"/>
				<path fill="#B1B1B1" d="M188.349,30.605l4.365-11.403h1.453l-5.143,13.298h-1.331l-5.162-13.298l1.452-0.003L188.349,30.605z"/>
				<path fill="#B1B1B1" d="M203.581,19.201v1.274h-6.312v4.864h5.52v1.274h-5.52v4.613h6.523v1.274h-7.797V19.201H203.581z"/>
				<path fill="#B1B1B1" d="M207.451,19.201v12.024h5.636v1.274h-6.91V19.201H207.451z"/>
				<path fill="#B1B1B1" d="M220.222,19.047c3.783,0,6.697,3.049,6.697,6.832c0,3.764-2.914,6.813-6.697,6.813
					c-3.764,0-6.678-3.049-6.678-6.813C213.544,22.096,216.458,19.047,220.222,19.047z M220.222,31.418
					c3.068,0,5.423-2.47,5.423-5.539c0-3.069-2.355-5.558-5.423-5.558c-3.069,0-5.404,2.49-5.404,5.558
					C214.818,28.948,217.153,31.418,220.222,31.418z"/>
				<path fill="#B1B1B1" d="M234.474,19.201c2.702,0,3.744,2.027,3.744,4.072s-1.042,4.034-3.744,4.034h-3.937v5.192h-1.294V19.201
					H234.474z M230.537,20.475v5.558h3.84c1.873,0,2.567-1.351,2.567-2.76s-0.695-2.799-2.47-2.799H230.537z"/>
				<path fill="#B1B1B1" d="M248.081,19.201v1.274h-6.312v4.864h5.52v1.274h-5.52v4.613h6.523v1.274h-7.797V19.201H248.081z"/>
				<path fill="#B1B1B1" d="M259.86,32.499h-1.564l-3.667-5.192h-2.239v5.192h-1.293V19.201h4.941c2.702,0,3.686,2.027,3.686,4.072
					c0,2.007-0.945,3.957-3.531,4.034L259.86,32.499z M252.391,20.475v5.558h3.551c1.873,0,2.509-1.351,2.509-2.76
					s-0.637-2.799-2.412-2.799H252.391z"/>
			</g>
			<g id="Paul_Van_Tuyl">
				<path fill="#FFFFFF" d="M54.397,0.127c2.702,0,3.744,2.027,3.744,4.072c0,2.046-1.042,4.034-3.744,4.034H50.46v5.192h-1.293
					V0.127H54.397z M50.46,1.401v5.558H54.3c1.872,0,2.567-1.351,2.567-2.76c0-1.409-0.695-2.799-2.47-2.799H50.46z"/>
				<path fill="#FFFFFF" d="M57.64,13.425l5.115-13.298h1.351l5.115,13.298h-1.37l-1.351-3.493h-6.157l-1.332,3.493H57.64z
					 M63.43,1.903l-2.625,6.832h5.25L63.43,1.903z"/>
				<path fill="#FFFFFF" d="M78.771,8.928V0.127h1.274v8.801c0,2.856-2.142,4.69-4.709,4.69s-4.709-1.834-4.709-4.69V0.127h1.274
					v8.801c0,2.084,1.563,3.416,3.435,3.416C77.208,12.344,78.771,11.012,78.771,8.928z"/>
				<path fill="#FFFFFF" d="M84.414,0.127v12.024h5.636v1.274H83.14V0.127H84.414z"/>
				<path fill="#FFFFFF" d="M101.051,11.53l4.366-11.403h1.452l-5.142,13.298h-1.332L95.233,0.127l1.452-0.003L101.051,11.53z"/>
				<path fill="#FFFFFF" d="M105.422,13.425l5.115-13.298h1.351l5.115,13.298h-1.37l-1.351-3.493h-6.157l-1.332,3.493H105.422z
					 M111.212,1.903l-2.625,6.832h5.25L111.212,1.903z"/>
				<path fill="#FFFFFF" d="M126.923,13.425l-6.774-11.136v11.136h-1.274V0.127h1.37l6.716,11.059V0.127h1.274v13.298H126.923z"/>
				<path fill="#FFFFFF" d="M145.664,0.127v1.274h-4.266v12.024h-1.274V1.401h-4.265V0.127H145.664z"/>
				<path fill="#FFFFFF" d="M155.682,8.928V0.127h1.274v8.801c0,2.856-2.143,4.69-4.709,4.69c-2.567,0-4.709-1.834-4.709-4.69V0.127
					h1.274v8.801c0,2.084,1.563,3.416,3.435,3.416C154.118,12.344,155.682,11.012,155.682,8.928z"/>
				<path fill="#FFFFFF" d="M165.106,13.425h-1.312V7.249l-4.998-7.122h1.524l4.13,5.732l4.169-5.732h1.544l-5.057,7.122V13.425z"/>
				<path fill="#FFFFFF" d="M173.323,0.127v12.024h5.636v1.274h-6.909V0.127H173.323z"/>
			</g>
		</g>
	</g>
</g>
<g id="Layer_1_copy" display="none">
	<path display="inline" fill="#FFFFFF" d="M23.77,0C10.642,0,0,10.641,0,23.77v23.442h2.961V35.261
		c4.052,7.321,11.85,12.28,20.809,12.28c13.128,0,23.772-10.643,23.772-23.771C47.542,10.641,36.899,0,23.77,0z M23.77,44.58
		c-11.474,0-20.809-9.336-20.809-20.81c0-11.474,9.334-20.809,20.809-20.809s20.81,9.335,20.81,20.809
		C44.58,35.244,35.245,44.58,23.77,44.58z"/>
	<g id="Paul_Van_Tuyl_1_" display="inline">
		<path fill="#FFFFFF" d="M78.888,13.965c3.929,0,5.444,2.946,5.444,5.921c0,2.975-1.515,5.865-5.444,5.865h-5.725V33.3h-1.88
			V13.965H78.888z M73.164,15.818v8.082h5.584c2.722,0,3.732-1.964,3.732-4.013c0-2.048-1.01-4.069-3.592-4.069H73.164z"/>
		<path fill="#FFFFFF" d="M83.603,33.3l7.436-19.335h1.964L100.44,33.3h-1.992l-1.964-5.079h-8.952L85.596,33.3H83.603z
			 M92.022,16.547l-3.816,9.934h7.633L92.022,16.547z"/>
		<path fill="#FFFFFF" d="M114.328,26.762V13.965h1.852v12.796c0,4.153-3.115,6.819-6.847,6.819c-3.732,0-6.847-2.666-6.847-6.819
			V13.965h1.852v12.796c0,3.031,2.273,4.967,4.995,4.967C112.055,31.729,114.328,29.792,114.328,26.762z"/>
		<path fill="#FFFFFF" d="M122.532,13.965v17.483h8.194V33.3H120.68V13.965H122.532z"/>
		<path fill="#FFFFFF" d="M146.722,30.545l6.347-16.579h2.112L147.704,33.3h-1.936l-7.505-19.335l2.112-0.005L146.722,30.545z"/>
		<path fill="#FFFFFF" d="M153.078,33.3l7.436-19.335h1.964l7.436,19.335h-1.992l-1.964-5.079h-8.952L155.07,33.3H153.078z
			 M161.496,16.547l-3.816,9.934h7.633L161.496,16.547z"/>
		<path fill="#FFFFFF" d="M184.339,33.3l-9.85-16.192V33.3h-1.852V13.965h1.992l9.766,16.08v-16.08h1.852V33.3H184.339z"/>
		<path fill="#FFFFFF" d="M211.589,13.965v1.852h-6.202V33.3h-1.852V15.818h-6.201v-1.852H211.589z"/>
		<path fill="#FFFFFF" d="M226.153,26.762V13.965h1.852v12.796c0,4.153-3.115,6.819-6.847,6.819c-3.733,0-6.847-2.666-6.847-6.819
			V13.965h1.852v12.796c0,3.031,2.272,4.967,4.995,4.967C223.88,31.729,226.153,29.792,226.153,26.762z"/>
		<path fill="#FFFFFF" d="M239.856,33.3h-1.908v-8.98l-7.267-10.355h2.216l6.005,8.334l6.061-8.334h2.245l-7.352,10.355V33.3z"/>
		<path fill="#FFFFFF" d="M251.803,13.965v17.483h8.194V33.3h-10.046V13.965H251.803z"/>
	</g>
</g>
</svg>
